<?xml version="1.0" encoding="utf-8"?>
<!-- Generator: Adobe Illustrator 16.2.1, SVG Export Plug-In . SVG Version: 6.00 Build 0)  -->
<!DOCTYPE svg PUBLIC "-//W3C//DTD SVG 1.1//EN" "http://www.w3.org/Graphics/SVG/1.1/DTD/svg11.dtd">
<svg version="1.1" id="Layer_1" xmlns="http://www.w3.org/2000/svg" xmlns:xlink="http://www.w3.org/1999/xlink" x="0px" y="0px"
	 width="238.11px" height="238.11px" viewBox="0 0 238.11 238.11" enable-background="new 0 0 238.11 238.11" xml:space="preserve">
<g>
	<path d="M230.117,153.566c2.354-7.671,3.916-15.579,4.648-23.591l-30.182-14.9c-0.114-2.236-0.312-4.475-0.605-6.711l26.973-20.144
		c-2.137-7.602-5.089-15.087-8.881-22.341l-33.422,3.779c-1.318-1.838-2.714-3.591-4.154-5.296l11.811-31.555
		c-6.055-5.379-12.612-10.054-19.538-13.997l-26.108,21.278c-2.083-0.822-4.195-1.56-6.332-2.216l-7.121-32.906
		c-7.902-1.242-15.949-1.675-24.01-1.257l-10.457,32.009c-2.193,0.432-4.38,0.939-6.553,1.552L72.422,13.453
		c-3.633,1.608-7.219,3.419-10.742,5.436c-3.523,2.016-6.898,4.191-10.127,6.508l8.502,32.555c-1.628,1.563-3.173,3.191-4.658,4.862
		L22.502,55.62c-4.442,6.74-8.143,13.897-11.076,21.34l24.769,22.806c-0.519,2.176-0.952,4.37-1.3,6.581L3.326,118.082
		c-0.106,7.972,0.603,15.992,2.175,23.937l33.188,5.801c0.741,2.104,1.546,4.197,2.463,6.263l-20.186,26.904
		c4.336,6.942,9.294,13.28,14.768,18.971l31.028-13.053c1.778,1.384,3.608,2.688,5.48,3.922l-2.439,33.567
		c7.279,3.428,14.889,6.086,22.696,7.941l19.043-27.752c2.229,0.205,4.47,0.325,6.718,0.355l16.107,29.576
		c7.869-1.029,15.702-2.877,23.375-5.586l1.016-33.67c0.99-0.518,1.98-1.034,2.957-1.596c0.979-0.558,1.928-1.15,2.875-1.742
		l29.549,16.178c6.22-5.245,11.781-11.063,16.652-17.327l-17.345-28.87c1.113-1.951,2.144-3.943,3.097-5.972L230.117,153.566z
		 M137.241,150.903c-17.861,10.224-40.626,4.03-50.848-13.829c-10.223-17.86-4.033-40.627,13.829-50.849
		c17.858-10.225,40.626-4.032,50.848,13.829C161.293,117.914,155.102,140.68,137.241,150.903z"/>
</g>
</svg>
