<svg width="16" height="16" viewBox="0 0 16 16" fill="#B1B8C4" xmlns="http://www.w3.org/2000/svg">
<g clip-path="url(#clip0_248_34)">
<path fill-rule="evenodd" clip-rule="evenodd" d="M7.99967 2.0835C4.73199 2.0835 2.08301 4.73248 2.08301 8.00016C2.08301 11.2678 4.73199 13.9168 7.99967 13.9168C11.2674 13.9168 13.9163 11.2678 13.9163 8.00016C13.9163 4.73248 11.2674 2.0835 7.99967 2.0835ZM0.583008 8.00016C0.583008 3.90405 3.90356 0.583496 7.99967 0.583496C12.0958 0.583496 15.4163 3.90405 15.4163 8.00016C15.4163 12.0963 12.0958 15.4168 7.99967 15.4168C3.90356 15.4168 0.583008 12.0963 0.583008 8.00016Z"/>
<path fill-rule="evenodd" clip-rule="evenodd" d="M8 7.25C8.41421 7.25 8.75 7.58579 8.75 8V10.6667C8.75 11.0809 8.41421 11.4167 8 11.4167C7.58579 11.4167 7.25 11.0809 7.25 10.6667V8C7.25 7.58579 7.58579 7.25 8 7.25Z"/>
<path fill-rule="evenodd" clip-rule="evenodd" d="M7.25 5.33334C7.25 4.91913 7.58579 4.58334 8 4.58334H8.00667C8.42088 4.58334 8.75667 4.91913 8.75667 5.33334C8.75667 5.74756 8.42088 6.08334 8.00667 6.08334H8C7.58579 6.08334 7.25 5.74756 7.25 5.33334Z"/>
</g>
<defs>
<clipPath id="clip0_248_34">
<rect width="16" height="16" fill="white"/>
</clipPath>
</defs>
</svg>
